# xmcd
#
# Track frame offsets:
#	150
#	57865
#	103552
#	145210
#
# Disc length: 2567 seconds
# Revision: 1
# Processed by: cddbd v1.5.2PL0 Copyright (c) Steve Scherf et al.
# Submitted via: dBpowerAMP V12.0
#
DISCID=300a0504
DTITLE=Lester Levenson - The Ultimate Goal Vol 01 CD 01
DYEAR=1965
DGENRE=Home Study
TTITLE0=The Ultimate Truth pt 1
TTITLE1=The Ultimate Truth pt 2
TTITLE2=Experiencing Truth pt 1
TTITLE3=Experiencing Truth pt 2
EXTD=
EXTT0=
EXTT1=
EXTT2=
EXTT3=
PLAYORDER=
